<mxfile host="app.diagrams.net" modified="2022-03-21T16:16:57.523Z" agent="5.0 (Macintosh)" etag="Prl-EbwGaULsBX3WMKUe" version="17.1.3" type="github">
  <diagram id="q5uySfuGyyFAdlzgSxIf" name="Page-1">
    <mxGraphModel dx="1426" dy="767" grid="1" gridSize="10" guides="1" tooltips="1" connect="1" arrows="1" fold="1" page="1" pageScale="1" pageWidth="850" pageHeight="1100" math="0" shadow="0">
      <root>
        <mxCell id="0" />
        <mxCell id="1" parent="0" />
        <mxCell id="7judBJOATlKyl89qZomi-1" value="Perception" style="rounded=1;whiteSpace=wrap;html=1;" vertex="1" parent="1">
          <mxGeometry x="110" y="100" width="120" height="60" as="geometry" />
        </mxCell>
        <mxCell id="7judBJOATlKyl89qZomi-2" value="Localization" style="rounded=1;whiteSpace=wrap;html=1;" vertex="1" parent="1">
          <mxGeometry x="365" y="40" width="120" height="60" as="geometry" />
        </mxCell>
        <mxCell id="7judBJOATlKyl89qZomi-3" value="" style="endArrow=classic;html=1;rounded=0;exitX=1;exitY=0.5;exitDx=0;exitDy=0;entryX=0;entryY=0.25;entryDx=0;entryDy=0;" edge="1" parent="1" source="7judBJOATlKyl89qZomi-1" target="7judBJOATlKyl89qZomi-2">
          <mxGeometry width="50" height="50" relative="1" as="geometry">
            <mxPoint x="400" y="250" as="sourcePoint" />
            <mxPoint x="450" y="200" as="targetPoint" />
          </mxGeometry>
        </mxCell>
        <mxCell id="7judBJOATlKyl89qZomi-7" style="edgeStyle=orthogonalEdgeStyle;rounded=0;orthogonalLoop=1;jettySize=auto;html=1;entryX=0;entryY=0.5;entryDx=0;entryDy=0;" edge="1" parent="1" source="7judBJOATlKyl89qZomi-4" target="7judBJOATlKyl89qZomi-6">
          <mxGeometry relative="1" as="geometry" />
        </mxCell>
        <mxCell id="7judBJOATlKyl89qZomi-4" value="DependsOn" style="rounded=1;whiteSpace=wrap;html=1;" vertex="1" parent="1">
          <mxGeometry x="840" y="40" width="80" height="40" as="geometry" />
        </mxCell>
        <mxCell id="7judBJOATlKyl89qZomi-6" value="This" style="rounded=1;whiteSpace=wrap;html=1;" vertex="1" parent="1">
          <mxGeometry x="980" y="40" width="80" height="40" as="geometry" />
        </mxCell>
        <mxCell id="7judBJOATlKyl89qZomi-10" style="edgeStyle=orthogonalEdgeStyle;rounded=0;orthogonalLoop=1;jettySize=auto;html=1;entryX=0.5;entryY=1;entryDx=0;entryDy=0;" edge="1" parent="1" source="7judBJOATlKyl89qZomi-8" target="7judBJOATlKyl89qZomi-1">
          <mxGeometry relative="1" as="geometry" />
        </mxCell>
        <mxCell id="7judBJOATlKyl89qZomi-13" style="edgeStyle=orthogonalEdgeStyle;rounded=0;orthogonalLoop=1;jettySize=auto;html=1;exitX=1;exitY=0.75;exitDx=0;exitDy=0;entryX=0.5;entryY=0;entryDx=0;entryDy=0;" edge="1" parent="1" source="7judBJOATlKyl89qZomi-8" target="7judBJOATlKyl89qZomi-11">
          <mxGeometry relative="1" as="geometry" />
        </mxCell>
        <mxCell id="7judBJOATlKyl89qZomi-14" style="edgeStyle=orthogonalEdgeStyle;rounded=0;orthogonalLoop=1;jettySize=auto;html=1;exitX=1;exitY=0.25;exitDx=0;exitDy=0;" edge="1" parent="1" source="7judBJOATlKyl89qZomi-8" target="7judBJOATlKyl89qZomi-12">
          <mxGeometry relative="1" as="geometry" />
        </mxCell>
        <mxCell id="7judBJOATlKyl89qZomi-15" style="edgeStyle=orthogonalEdgeStyle;rounded=0;orthogonalLoop=1;jettySize=auto;html=1;exitX=1;exitY=0;exitDx=0;exitDy=0;entryX=0;entryY=1;entryDx=0;entryDy=0;" edge="1" parent="1" source="7judBJOATlKyl89qZomi-8" target="7judBJOATlKyl89qZomi-2">
          <mxGeometry relative="1" as="geometry">
            <Array as="points">
              <mxPoint x="230" y="160" />
              <mxPoint x="500" y="160" />
              <mxPoint x="500" y="130" />
            </Array>
          </mxGeometry>
        </mxCell>
        <mxCell id="7judBJOATlKyl89qZomi-8" value="Prediction" style="rounded=1;whiteSpace=wrap;html=1;" vertex="1" parent="1">
          <mxGeometry x="110" y="190" width="120" height="60" as="geometry" />
        </mxCell>
        <mxCell id="7judBJOATlKyl89qZomi-17" style="edgeStyle=orthogonalEdgeStyle;rounded=0;orthogonalLoop=1;jettySize=auto;html=1;exitX=1;exitY=0.25;exitDx=0;exitDy=0;entryX=0;entryY=0.25;entryDx=0;entryDy=0;" edge="1" parent="1" source="7judBJOATlKyl89qZomi-11" target="7judBJOATlKyl89qZomi-16">
          <mxGeometry relative="1" as="geometry" />
        </mxCell>
        <mxCell id="7judBJOATlKyl89qZomi-19" style="edgeStyle=orthogonalEdgeStyle;rounded=0;orthogonalLoop=1;jettySize=auto;html=1;exitX=0.75;exitY=1;exitDx=0;exitDy=0;entryX=0;entryY=0.5;entryDx=0;entryDy=0;" edge="1" parent="1" source="7judBJOATlKyl89qZomi-11" target="7judBJOATlKyl89qZomi-18">
          <mxGeometry relative="1" as="geometry" />
        </mxCell>
        <mxCell id="7judBJOATlKyl89qZomi-20" style="edgeStyle=orthogonalEdgeStyle;rounded=0;orthogonalLoop=1;jettySize=auto;html=1;exitX=0.75;exitY=0;exitDx=0;exitDy=0;entryX=0;entryY=0.5;entryDx=0;entryDy=0;" edge="1" parent="1" source="7judBJOATlKyl89qZomi-11" target="7judBJOATlKyl89qZomi-2">
          <mxGeometry relative="1" as="geometry" />
        </mxCell>
        <mxCell id="7judBJOATlKyl89qZomi-22" style="edgeStyle=orthogonalEdgeStyle;rounded=0;orthogonalLoop=1;jettySize=auto;html=1;exitX=1;exitY=0.5;exitDx=0;exitDy=0;entryX=0;entryY=0.5;entryDx=0;entryDy=0;" edge="1" parent="1" source="7judBJOATlKyl89qZomi-11" target="7judBJOATlKyl89qZomi-21">
          <mxGeometry relative="1" as="geometry" />
        </mxCell>
        <mxCell id="7judBJOATlKyl89qZomi-23" style="edgeStyle=orthogonalEdgeStyle;rounded=0;orthogonalLoop=1;jettySize=auto;html=1;exitX=0.25;exitY=0;exitDx=0;exitDy=0;entryX=1;entryY=0.75;entryDx=0;entryDy=0;" edge="1" parent="1" source="7judBJOATlKyl89qZomi-11" target="7judBJOATlKyl89qZomi-1">
          <mxGeometry relative="1" as="geometry" />
        </mxCell>
        <mxCell id="7judBJOATlKyl89qZomi-24" style="edgeStyle=orthogonalEdgeStyle;rounded=0;orthogonalLoop=1;jettySize=auto;html=1;exitX=0;exitY=0.5;exitDx=0;exitDy=0;entryX=0.5;entryY=1;entryDx=0;entryDy=0;" edge="1" parent="1" source="7judBJOATlKyl89qZomi-11" target="7judBJOATlKyl89qZomi-8">
          <mxGeometry relative="1" as="geometry" />
        </mxCell>
        <mxCell id="7judBJOATlKyl89qZomi-25" style="edgeStyle=orthogonalEdgeStyle;rounded=0;orthogonalLoop=1;jettySize=auto;html=1;exitX=1;exitY=0;exitDx=0;exitDy=0;entryX=0;entryY=0.75;entryDx=0;entryDy=0;" edge="1" parent="1" source="7judBJOATlKyl89qZomi-11" target="7judBJOATlKyl89qZomi-12">
          <mxGeometry relative="1" as="geometry" />
        </mxCell>
        <mxCell id="7judBJOATlKyl89qZomi-11" value="Planning" style="rounded=1;whiteSpace=wrap;html=1;" vertex="1" parent="1">
          <mxGeometry x="320" y="280" width="120" height="60" as="geometry" />
        </mxCell>
        <mxCell id="7judBJOATlKyl89qZomi-12" value="Storytelling" style="rounded=1;whiteSpace=wrap;html=1;" vertex="1" parent="1">
          <mxGeometry x="540" y="170" width="120" height="60" as="geometry" />
        </mxCell>
        <mxCell id="7judBJOATlKyl89qZomi-39" style="edgeStyle=orthogonalEdgeStyle;rounded=0;orthogonalLoop=1;jettySize=auto;html=1;exitX=0.25;exitY=1;exitDx=0;exitDy=0;entryX=0.5;entryY=0;entryDx=0;entryDy=0;" edge="1" parent="1" source="7judBJOATlKyl89qZomi-16" target="7judBJOATlKyl89qZomi-26">
          <mxGeometry relative="1" as="geometry">
            <Array as="points">
              <mxPoint x="660" y="350" />
              <mxPoint x="170" y="350" />
            </Array>
          </mxGeometry>
        </mxCell>
        <mxCell id="7judBJOATlKyl89qZomi-40" style="edgeStyle=orthogonalEdgeStyle;rounded=0;orthogonalLoop=1;jettySize=auto;html=1;exitX=0;exitY=1;exitDx=0;exitDy=0;entryX=0.75;entryY=0;entryDx=0;entryDy=0;" edge="1" parent="1" source="7judBJOATlKyl89qZomi-16" target="7judBJOATlKyl89qZomi-35">
          <mxGeometry relative="1" as="geometry">
            <Array as="points">
              <mxPoint x="540" y="330" />
              <mxPoint x="540" y="430" />
              <mxPoint x="210" y="430" />
            </Array>
          </mxGeometry>
        </mxCell>
        <mxCell id="7judBJOATlKyl89qZomi-16" value="CanBUS" style="rounded=1;whiteSpace=wrap;html=1;" vertex="1" parent="1">
          <mxGeometry x="630" y="270" width="120" height="60" as="geometry" />
        </mxCell>
        <mxCell id="7judBJOATlKyl89qZomi-48" style="edgeStyle=orthogonalEdgeStyle;rounded=0;orthogonalLoop=1;jettySize=auto;html=1;exitX=0;exitY=0.25;exitDx=0;exitDy=0;entryX=1;entryY=1;entryDx=0;entryDy=0;" edge="1" parent="1" source="7judBJOATlKyl89qZomi-18" target="7judBJOATlKyl89qZomi-11">
          <mxGeometry relative="1" as="geometry" />
        </mxCell>
        <mxCell id="7judBJOATlKyl89qZomi-18" value="Routing" style="rounded=1;whiteSpace=wrap;html=1;" vertex="1" parent="1">
          <mxGeometry x="530" y="440" width="120" height="60" as="geometry" />
        </mxCell>
        <mxCell id="7judBJOATlKyl89qZomi-32" style="edgeStyle=orthogonalEdgeStyle;rounded=0;orthogonalLoop=1;jettySize=auto;html=1;exitX=0.5;exitY=0;exitDx=0;exitDy=0;entryX=0.45;entryY=0.983;entryDx=0;entryDy=0;entryPerimeter=0;" edge="1" parent="1" source="7judBJOATlKyl89qZomi-21" target="7judBJOATlKyl89qZomi-16">
          <mxGeometry relative="1" as="geometry" />
        </mxCell>
        <mxCell id="7judBJOATlKyl89qZomi-33" style="edgeStyle=orthogonalEdgeStyle;rounded=0;orthogonalLoop=1;jettySize=auto;html=1;exitX=0.25;exitY=0;exitDx=0;exitDy=0;entryX=1;entryY=0.25;entryDx=0;entryDy=0;" edge="1" parent="1" source="7judBJOATlKyl89qZomi-21" target="7judBJOATlKyl89qZomi-1">
          <mxGeometry relative="1" as="geometry" />
        </mxCell>
        <mxCell id="7judBJOATlKyl89qZomi-34" style="edgeStyle=orthogonalEdgeStyle;rounded=0;orthogonalLoop=1;jettySize=auto;html=1;exitX=0;exitY=0;exitDx=0;exitDy=0;entryX=0.5;entryY=1;entryDx=0;entryDy=0;" edge="1" parent="1" source="7judBJOATlKyl89qZomi-21" target="7judBJOATlKyl89qZomi-2">
          <mxGeometry relative="1" as="geometry" />
        </mxCell>
        <mxCell id="7judBJOATlKyl89qZomi-21" value="Map" style="rounded=1;whiteSpace=wrap;html=1;" vertex="1" parent="1">
          <mxGeometry x="580" y="360" width="120" height="60" as="geometry" />
        </mxCell>
        <mxCell id="7judBJOATlKyl89qZomi-27" style="edgeStyle=orthogonalEdgeStyle;rounded=0;orthogonalLoop=1;jettySize=auto;html=1;exitX=1;exitY=0.25;exitDx=0;exitDy=0;entryX=0;entryY=0.5;entryDx=0;entryDy=0;" edge="1" parent="1" source="7judBJOATlKyl89qZomi-26" target="7judBJOATlKyl89qZomi-16">
          <mxGeometry relative="1" as="geometry">
            <Array as="points">
              <mxPoint x="480" y="435" />
              <mxPoint x="480" y="300" />
            </Array>
          </mxGeometry>
        </mxCell>
        <mxCell id="7judBJOATlKyl89qZomi-28" style="edgeStyle=orthogonalEdgeStyle;rounded=0;orthogonalLoop=1;jettySize=auto;html=1;entryX=0;entryY=0.75;entryDx=0;entryDy=0;" edge="1" parent="1" source="7judBJOATlKyl89qZomi-26" target="7judBJOATlKyl89qZomi-2">
          <mxGeometry relative="1" as="geometry" />
        </mxCell>
        <mxCell id="7judBJOATlKyl89qZomi-30" style="edgeStyle=orthogonalEdgeStyle;rounded=0;orthogonalLoop=1;jettySize=auto;html=1;exitX=1;exitY=0.75;exitDx=0;exitDy=0;" edge="1" parent="1" source="7judBJOATlKyl89qZomi-26" target="7judBJOATlKyl89qZomi-29">
          <mxGeometry relative="1" as="geometry" />
        </mxCell>
        <mxCell id="7judBJOATlKyl89qZomi-31" style="edgeStyle=orthogonalEdgeStyle;rounded=0;orthogonalLoop=1;jettySize=auto;html=1;exitX=0.75;exitY=0;exitDx=0;exitDy=0;entryX=0;entryY=0.75;entryDx=0;entryDy=0;" edge="1" parent="1" source="7judBJOATlKyl89qZomi-26" target="7judBJOATlKyl89qZomi-11">
          <mxGeometry relative="1" as="geometry" />
        </mxCell>
        <mxCell id="7judBJOATlKyl89qZomi-26" value="Control" style="rounded=1;whiteSpace=wrap;html=1;" vertex="1" parent="1">
          <mxGeometry x="110" y="420" width="120" height="60" as="geometry" />
        </mxCell>
        <mxCell id="7judBJOATlKyl89qZomi-41" style="edgeStyle=orthogonalEdgeStyle;rounded=0;orthogonalLoop=1;jettySize=auto;html=1;exitX=0.75;exitY=0;exitDx=0;exitDy=0;entryX=0.75;entryY=1;entryDx=0;entryDy=0;" edge="1" parent="1" source="7judBJOATlKyl89qZomi-29" target="7judBJOATlKyl89qZomi-2">
          <mxGeometry relative="1" as="geometry" />
        </mxCell>
        <mxCell id="7judBJOATlKyl89qZomi-42" style="edgeStyle=orthogonalEdgeStyle;rounded=0;orthogonalLoop=1;jettySize=auto;html=1;exitX=1;exitY=0;exitDx=0;exitDy=0;entryX=0;entryY=0.75;entryDx=0;entryDy=0;" edge="1" parent="1" source="7judBJOATlKyl89qZomi-29" target="7judBJOATlKyl89qZomi-21">
          <mxGeometry relative="1" as="geometry" />
        </mxCell>
        <mxCell id="7judBJOATlKyl89qZomi-43" style="edgeStyle=orthogonalEdgeStyle;rounded=0;orthogonalLoop=1;jettySize=auto;html=1;exitX=1;exitY=0.25;exitDx=0;exitDy=0;entryX=1;entryY=1;entryDx=0;entryDy=0;" edge="1" parent="1" source="7judBJOATlKyl89qZomi-29" target="7judBJOATlKyl89qZomi-16">
          <mxGeometry relative="1" as="geometry" />
        </mxCell>
        <mxCell id="7judBJOATlKyl89qZomi-44" style="edgeStyle=orthogonalEdgeStyle;rounded=0;orthogonalLoop=1;jettySize=auto;html=1;exitX=0.25;exitY=0;exitDx=0;exitDy=0;entryX=0.25;entryY=1;entryDx=0;entryDy=0;" edge="1" parent="1" source="7judBJOATlKyl89qZomi-29" target="7judBJOATlKyl89qZomi-11">
          <mxGeometry relative="1" as="geometry" />
        </mxCell>
        <mxCell id="7judBJOATlKyl89qZomi-45" style="edgeStyle=orthogonalEdgeStyle;rounded=0;orthogonalLoop=1;jettySize=auto;html=1;exitX=0;exitY=0;exitDx=0;exitDy=0;entryX=1;entryY=0.5;entryDx=0;entryDy=0;" edge="1" parent="1" source="7judBJOATlKyl89qZomi-29" target="7judBJOATlKyl89qZomi-1">
          <mxGeometry relative="1" as="geometry" />
        </mxCell>
        <mxCell id="7judBJOATlKyl89qZomi-46" style="edgeStyle=orthogonalEdgeStyle;rounded=0;orthogonalLoop=1;jettySize=auto;html=1;exitX=0;exitY=0.5;exitDx=0;exitDy=0;entryX=0.75;entryY=1;entryDx=0;entryDy=0;" edge="1" parent="1" source="7judBJOATlKyl89qZomi-29" target="7judBJOATlKyl89qZomi-8">
          <mxGeometry relative="1" as="geometry" />
        </mxCell>
        <mxCell id="7judBJOATlKyl89qZomi-47" style="edgeStyle=orthogonalEdgeStyle;rounded=0;orthogonalLoop=1;jettySize=auto;html=1;exitX=0;exitY=0.75;exitDx=0;exitDy=0;entryX=0.25;entryY=1;entryDx=0;entryDy=0;" edge="1" parent="1" source="7judBJOATlKyl89qZomi-29" target="7judBJOATlKyl89qZomi-26">
          <mxGeometry relative="1" as="geometry" />
        </mxCell>
        <mxCell id="7judBJOATlKyl89qZomi-29" value="Monitor" style="rounded=1;whiteSpace=wrap;html=1;" vertex="1" parent="1">
          <mxGeometry x="290" y="550" width="120" height="60" as="geometry" />
        </mxCell>
        <mxCell id="7judBJOATlKyl89qZomi-36" style="edgeStyle=orthogonalEdgeStyle;rounded=0;orthogonalLoop=1;jettySize=auto;html=1;entryX=0.567;entryY=1.017;entryDx=0;entryDy=0;entryPerimeter=0;" edge="1" parent="1" source="7judBJOATlKyl89qZomi-35" target="7judBJOATlKyl89qZomi-26">
          <mxGeometry relative="1" as="geometry" />
        </mxCell>
        <mxCell id="7judBJOATlKyl89qZomi-37" style="edgeStyle=orthogonalEdgeStyle;rounded=0;orthogonalLoop=1;jettySize=auto;html=1;entryX=0;entryY=0.25;entryDx=0;entryDy=0;" edge="1" parent="1" source="7judBJOATlKyl89qZomi-35" target="7judBJOATlKyl89qZomi-29">
          <mxGeometry relative="1" as="geometry" />
        </mxCell>
        <mxCell id="7judBJOATlKyl89qZomi-38" style="edgeStyle=orthogonalEdgeStyle;rounded=0;orthogonalLoop=1;jettySize=auto;html=1;exitX=1;exitY=0;exitDx=0;exitDy=0;entryX=0;entryY=0.75;entryDx=0;entryDy=0;" edge="1" parent="1" source="7judBJOATlKyl89qZomi-35" target="7judBJOATlKyl89qZomi-16">
          <mxGeometry relative="1" as="geometry" />
        </mxCell>
        <mxCell id="7judBJOATlKyl89qZomi-35" value="Guardian" style="rounded=1;whiteSpace=wrap;html=1;" vertex="1" parent="1">
          <mxGeometry x="120" y="530" width="120" height="60" as="geometry" />
        </mxCell>
      </root>
    </mxGraphModel>
  </diagram>
</mxfile>
